<mxfile host="app.diagrams.net" agent="Mozilla/5.0 (Macintosh; Intel Mac OS X 10_15_7) AppleWebKit/537.36 (KHTML, like Gecko) Chrome/131.0.0.0 Safari/537.36" version="26.0.5">
  <diagram name="Page-1" id="UpIutoUugQVWGNE2OLsK">
    <mxGraphModel dx="1434" dy="792" grid="1" gridSize="10" guides="1" tooltips="1" connect="1" arrows="1" fold="1" page="1" pageScale="1" pageWidth="827" pageHeight="1169" math="0" shadow="0">
      <root>
        <mxCell id="0" />
        <mxCell id="1" parent="0" />
        <mxCell id="9VSGa8-es2IJRm255jRK-3" value="" style="rounded=1;arcSize=10;dashed=1;fillColor=#dae8fc;dashPattern=1 1;strokeWidth=2;strokeColor=#6c8ebf;" parent="1" vertex="1">
          <mxGeometry x="340" y="160" width="480" height="440" as="geometry" />
        </mxCell>
        <mxCell id="9VSGa8-es2IJRm255jRK-1" value="&lt;div&gt;demo-ns&lt;/div&gt;" style="aspect=fixed;sketch=0;html=1;dashed=0;whitespace=wrap;verticalLabelPosition=bottom;verticalAlign=top;fillColor=#2875E2;strokeColor=#ffffff;points=[[0.005,0.63,0],[0.1,0.2,0],[0.9,0.2,0],[0.5,0,0],[0.995,0.63,0],[0.72,0.99,0],[0.5,1,0],[0.28,0.99,0]];shape=mxgraph.kubernetes.icon2;prIcon=ns" parent="1" vertex="1">
          <mxGeometry x="340" y="160" width="50" height="48" as="geometry" />
        </mxCell>
        <mxCell id="OzOBJrEiFOoFjPXLPz0q-23" style="edgeStyle=orthogonalEdgeStyle;rounded=0;orthogonalLoop=1;jettySize=auto;html=1;curved=1;" parent="1" source="9VSGa8-es2IJRm255jRK-4" edge="1">
          <mxGeometry relative="1" as="geometry">
            <mxPoint x="700" y="353" as="targetPoint" />
          </mxGeometry>
        </mxCell>
        <mxCell id="9VSGa8-es2IJRm255jRK-4" value="transactd" style="aspect=fixed;sketch=0;html=1;dashed=0;whitespace=wrap;verticalLabelPosition=bottom;verticalAlign=top;fillColor=#2875E2;strokeColor=#ffffff;points=[[0.005,0.63,0],[0.1,0.2,0],[0.9,0.2,0],[0.5,0,0],[0.995,0.63,0],[0.72,0.99,0],[0.5,1,0],[0.28,0.99,0]];shape=mxgraph.kubernetes.icon2;prIcon=pod" parent="1" vertex="1">
          <mxGeometry x="540" y="329" width="50" height="48" as="geometry" />
        </mxCell>
        <mxCell id="OzOBJrEiFOoFjPXLPz0q-30" style="edgeStyle=orthogonalEdgeStyle;rounded=0;orthogonalLoop=1;jettySize=auto;html=1;curved=1;fillColor=#dae8fc;strokeColor=#6c8ebf;" parent="1" source="9VSGa8-es2IJRm255jRK-5" target="9VSGa8-es2IJRm255jRK-7" edge="1">
          <mxGeometry relative="1" as="geometry">
            <Array as="points">
              <mxPoint x="490" y="480" />
              <mxPoint x="490" y="274" />
            </Array>
          </mxGeometry>
        </mxCell>
        <mxCell id="9VSGa8-es2IJRm255jRK-5" value="Deployment" style="aspect=fixed;sketch=0;html=1;dashed=0;whitespace=wrap;verticalLabelPosition=bottom;verticalAlign=top;fillColor=#2875E2;strokeColor=#ffffff;points=[[0.005,0.63,0],[0.1,0.2,0],[0.9,0.2,0],[0.5,0,0],[0.995,0.63,0],[0.72,0.99,0],[0.5,1,0],[0.28,0.99,0]];shape=mxgraph.kubernetes.icon2;prIcon=deploy" parent="1" vertex="1">
          <mxGeometry x="460.00000000000006" y="480" width="50" height="48" as="geometry" />
        </mxCell>
        <mxCell id="9VSGa8-es2IJRm255jRK-7" value="transactd" style="aspect=fixed;sketch=0;html=1;dashed=0;whitespace=wrap;verticalLabelPosition=bottom;verticalAlign=top;fillColor=#2875E2;strokeColor=#ffffff;points=[[0.005,0.63,0],[0.1,0.2,0],[0.9,0.2,0],[0.5,0,0],[0.995,0.63,0],[0.72,0.99,0],[0.5,1,0],[0.28,0.99,0]];shape=mxgraph.kubernetes.icon2;prIcon=pod" parent="1" vertex="1">
          <mxGeometry x="540" y="250" width="50" height="48" as="geometry" />
        </mxCell>
        <mxCell id="9VSGa8-es2IJRm255jRK-9" value="" style="aspect=fixed;sketch=0;html=1;dashed=0;whitespace=wrap;verticalLabelPosition=bottom;verticalAlign=top;fillColor=#2875E2;strokeColor=#ffffff;points=[[0.005,0.63,0],[0.1,0.2,0],[0.9,0.2,0],[0.5,0,0],[0.995,0.63,0],[0.72,0.99,0],[0.5,1,0],[0.28,0.99,0]];shape=mxgraph.kubernetes.icon2;kubernetesLabel=1;prIcon=pvc" parent="1" vertex="1">
          <mxGeometry x="700" y="240" width="50" height="48" as="geometry" />
        </mxCell>
        <mxCell id="9VSGa8-es2IJRm255jRK-11" value="Statefulset" style="aspect=fixed;sketch=0;html=1;dashed=0;whitespace=wrap;verticalLabelPosition=bottom;verticalAlign=top;fillColor=#2875E2;strokeColor=#ffffff;points=[[0.005,0.63,0],[0.1,0.2,0],[0.9,0.2,0],[0.5,0,0],[0.995,0.63,0],[0.72,0.99,0],[0.5,1,0],[0.28,0.99,0]];shape=mxgraph.kubernetes.icon2;kubernetesLabel=1;prIcon=sts" parent="1" vertex="1">
          <mxGeometry x="700" y="420" width="50" height="48" as="geometry" />
        </mxCell>
        <mxCell id="OzOBJrEiFOoFjPXLPz0q-29" value="" style="edgeStyle=orthogonalEdgeStyle;rounded=0;orthogonalLoop=1;jettySize=auto;html=1;" parent="1" source="9VSGa8-es2IJRm255jRK-12" target="9VSGa8-es2IJRm255jRK-9" edge="1">
          <mxGeometry relative="1" as="geometry" />
        </mxCell>
        <mxCell id="9VSGa8-es2IJRm255jRK-12" value="MySQL" style="aspect=fixed;sketch=0;html=1;dashed=0;whitespace=wrap;verticalLabelPosition=middle;verticalAlign=middle;fillColor=#2875E2;strokeColor=#ffffff;points=[[0.005,0.63,0],[0.1,0.2,0],[0.9,0.2,0],[0.5,0,0],[0.995,0.63,0],[0.72,0.99,0],[0.5,1,0],[0.28,0.99,0]];shape=mxgraph.kubernetes.icon2;prIcon=pod;labelPosition=right;align=left;" parent="1" vertex="1">
          <mxGeometry x="700" y="330" width="50" height="48" as="geometry" />
        </mxCell>
        <mxCell id="OzOBJrEiFOoFjPXLPz0q-5" value="" style="edgeStyle=orthogonalEdgeStyle;rounded=0;orthogonalLoop=1;jettySize=auto;html=1;" parent="1" source="9VSGa8-es2IJRm255jRK-15" target="9VSGa8-es2IJRm255jRK-4" edge="1">
          <mxGeometry relative="1" as="geometry" />
        </mxCell>
        <mxCell id="9VSGa8-es2IJRm255jRK-15" value="svc" style="aspect=fixed;sketch=0;html=1;dashed=0;whitespace=wrap;verticalLabelPosition=bottom;verticalAlign=top;fillColor=#2875E2;strokeColor=#ffffff;points=[[0.005,0.63,0],[0.1,0.2,0],[0.9,0.2,0],[0.5,0,0],[0.995,0.63,0],[0.72,0.99,0],[0.5,1,0],[0.28,0.99,0]];shape=mxgraph.kubernetes.icon2;kubernetesLabel=1;prIcon=svc" parent="1" vertex="1">
          <mxGeometry x="436" y="328" width="52.08" height="50" as="geometry" />
        </mxCell>
        <mxCell id="OzOBJrEiFOoFjPXLPz0q-35" value="" style="edgeStyle=orthogonalEdgeStyle;rounded=0;orthogonalLoop=1;jettySize=auto;html=1;" parent="1" source="9VSGa8-es2IJRm255jRK-22" target="OzOBJrEiFOoFjPXLPz0q-1" edge="1">
          <mxGeometry relative="1" as="geometry" />
        </mxCell>
        <mxCell id="9VSGa8-es2IJRm255jRK-22" value="Client" style="shape=umlActor;verticalLabelPosition=bottom;verticalAlign=top;html=1;outlineConnect=0;" parent="1" vertex="1">
          <mxGeometry x="190" y="323" width="30" height="60" as="geometry" />
        </mxCell>
        <mxCell id="OzOBJrEiFOoFjPXLPz0q-3" value="" style="edgeStyle=orthogonalEdgeStyle;rounded=0;orthogonalLoop=1;jettySize=auto;html=1;" parent="1" source="OzOBJrEiFOoFjPXLPz0q-1" target="9VSGa8-es2IJRm255jRK-15" edge="1">
          <mxGeometry relative="1" as="geometry" />
        </mxCell>
        <mxCell id="OzOBJrEiFOoFjPXLPz0q-1" value="ingress" style="aspect=fixed;sketch=0;html=1;dashed=0;whitespace=wrap;verticalLabelPosition=bottom;verticalAlign=top;fillColor=#2875E2;strokeColor=#ffffff;points=[[0.005,0.63,0],[0.1,0.2,0],[0.9,0.2,0],[0.5,0,0],[0.995,0.63,0],[0.72,0.99,0],[0.5,1,0],[0.28,0.99,0]];shape=mxgraph.kubernetes.icon2;kubernetesLabel=1;prIcon=ing" parent="1" vertex="1">
          <mxGeometry x="316" y="329" width="50" height="48" as="geometry" />
        </mxCell>
        <mxCell id="OzOBJrEiFOoFjPXLPz0q-4" value="transactd" style="aspect=fixed;sketch=0;html=1;dashed=0;whitespace=wrap;verticalLabelPosition=bottom;verticalAlign=top;fillColor=#2875E2;strokeColor=#ffffff;points=[[0.005,0.63,0],[0.1,0.2,0],[0.9,0.2,0],[0.5,0,0],[0.995,0.63,0],[0.72,0.99,0],[0.5,1,0],[0.28,0.99,0]];shape=mxgraph.kubernetes.icon2;prIcon=pod" parent="1" vertex="1">
          <mxGeometry x="540" y="408" width="50" height="48" as="geometry" />
        </mxCell>
        <mxCell id="OzOBJrEiFOoFjPXLPz0q-7" style="edgeStyle=orthogonalEdgeStyle;rounded=0;orthogonalLoop=1;jettySize=auto;html=1;entryX=0.005;entryY=0.63;entryDx=0;entryDy=0;entryPerimeter=0;" parent="1" source="9VSGa8-es2IJRm255jRK-15" target="9VSGa8-es2IJRm255jRK-7" edge="1">
          <mxGeometry relative="1" as="geometry" />
        </mxCell>
        <mxCell id="OzOBJrEiFOoFjPXLPz0q-8" style="edgeStyle=orthogonalEdgeStyle;rounded=0;orthogonalLoop=1;jettySize=auto;html=1;entryX=0.02;entryY=0.5;entryDx=0;entryDy=0;entryPerimeter=0;" parent="1" source="9VSGa8-es2IJRm255jRK-15" target="OzOBJrEiFOoFjPXLPz0q-4" edge="1">
          <mxGeometry relative="1" as="geometry" />
        </mxCell>
        <mxCell id="OzOBJrEiFOoFjPXLPz0q-22" style="edgeStyle=orthogonalEdgeStyle;rounded=0;orthogonalLoop=1;jettySize=auto;html=1;entryX=0;entryY=0.479;entryDx=0;entryDy=0;entryPerimeter=0;curved=1;" parent="1" source="9VSGa8-es2IJRm255jRK-7" target="9VSGa8-es2IJRm255jRK-12" edge="1">
          <mxGeometry relative="1" as="geometry" />
        </mxCell>
        <mxCell id="OzOBJrEiFOoFjPXLPz0q-25" style="edgeStyle=orthogonalEdgeStyle;rounded=0;orthogonalLoop=1;jettySize=auto;html=1;entryX=-0.02;entryY=0.479;entryDx=0;entryDy=0;entryPerimeter=0;curved=1;" parent="1" source="OzOBJrEiFOoFjPXLPz0q-4" target="9VSGa8-es2IJRm255jRK-12" edge="1">
          <mxGeometry relative="1" as="geometry" />
        </mxCell>
        <mxCell id="OzOBJrEiFOoFjPXLPz0q-28" style="edgeStyle=orthogonalEdgeStyle;rounded=0;orthogonalLoop=1;jettySize=auto;html=1;entryX=0.5;entryY=1;entryDx=0;entryDy=0;entryPerimeter=0;" parent="1" source="9VSGa8-es2IJRm255jRK-11" target="9VSGa8-es2IJRm255jRK-12" edge="1">
          <mxGeometry relative="1" as="geometry" />
        </mxCell>
        <mxCell id="OzOBJrEiFOoFjPXLPz0q-31" style="edgeStyle=orthogonalEdgeStyle;rounded=0;orthogonalLoop=1;jettySize=auto;html=1;entryX=0.08;entryY=0.792;entryDx=0;entryDy=0;entryPerimeter=0;curved=1;fillColor=#dae8fc;strokeColor=#6c8ebf;" parent="1" source="9VSGa8-es2IJRm255jRK-5" target="9VSGa8-es2IJRm255jRK-4" edge="1">
          <mxGeometry relative="1" as="geometry">
            <Array as="points">
              <mxPoint x="500" y="367" />
            </Array>
          </mxGeometry>
        </mxCell>
        <mxCell id="OzOBJrEiFOoFjPXLPz0q-32" style="edgeStyle=orthogonalEdgeStyle;rounded=0;orthogonalLoop=1;jettySize=auto;html=1;entryX=0.12;entryY=0.771;entryDx=0;entryDy=0;entryPerimeter=0;curved=1;fillColor=#dae8fc;strokeColor=#6c8ebf;" parent="1" source="9VSGa8-es2IJRm255jRK-5" target="OzOBJrEiFOoFjPXLPz0q-4" edge="1">
          <mxGeometry relative="1" as="geometry">
            <Array as="points">
              <mxPoint x="510" y="445" />
            </Array>
          </mxGeometry>
        </mxCell>
        <mxCell id="GZ36FY0QfPy_CoLehOos-1" value="&lt;h1 style=&quot;margin-top: 0px;&quot;&gt;Client&lt;/h1&gt;&lt;div&gt;The client shall be able to REST call the API inserting a new transaction.&lt;/div&gt;&lt;div&gt;&lt;br&gt;&lt;/div&gt;&lt;div&gt;The client shall be able to REST&amp;nbsp;&lt;br&gt;call the API getting all the transactions stored in thew MySQL base&lt;/div&gt;" style="text;html=1;whiteSpace=wrap;overflow=hidden;rounded=0;fillColor=#fff2cc;strokeColor=#d6b656;" vertex="1" parent="1">
          <mxGeometry x="20" y="130" width="270" height="150" as="geometry" />
        </mxCell>
        <mxCell id="GZ36FY0QfPy_CoLehOos-4" value="&lt;h1 style=&quot;margin-top: 0px;&quot;&gt;Backend&lt;/h1&gt;&lt;div&gt;Backend implemented using MySQL engine.&lt;br&gt;Statefulset instance.&lt;/div&gt;" style="text;html=1;whiteSpace=wrap;overflow=hidden;rounded=0;fillColor=#fff2cc;strokeColor=#d6b656;" vertex="1" parent="1">
          <mxGeometry x="840" y="319" width="240" height="101" as="geometry" />
        </mxCell>
        <mxCell id="GZ36FY0QfPy_CoLehOos-5" value="&lt;h1 style=&quot;margin-top: 0px;&quot;&gt;API Service&lt;/h1&gt;&lt;div&gt;&lt;br&gt;&lt;/div&gt;" style="text;html=1;whiteSpace=wrap;overflow=hidden;rounded=0;fillColor=#fff2cc;strokeColor=#d6b656;" vertex="1" parent="1">
          <mxGeometry x="495" y="180" width="140" height="50" as="geometry" />
        </mxCell>
      </root>
    </mxGraphModel>
  </diagram>
</mxfile>
